# xmcd
#
# Track frame offsets: 
#        150
#        9903
#        22701
#        35187
#        52001
#        63508
#        78449
#        87952
#        100013
#        111521
#        122038
#        131594
#        145435
#        157025
#        170860
#        183918
#        196474
#        206344
#        220920
#        230397
#        243706
#        255137
#
# Disc length: 3604 seconds
#
# Revision: 0
# Processed by: cddbd v1.5.2PL0 Copyright (c) Steve Scherf et al.
# Submitted via: ExactAudioCopy v1.0b1
#
DISCID=360e1216
DTITLE=Conway Twitty - Next In Line and Darling, You Know I Wouldn't Lie
DYEAR=2009
DGENRE=Country
TTITLE0=Mama Tried
TTITLE1=Next In Line
TTITLE2=D-I-V-O-R-C-E
TTITLE3=With Pen In Hand
TTITLE4=Us
TTITLE5=I Told My World To Go Away (And She Did)
TTITLE6=Ain't It Sad To Stand And Watch Love Die
TTITLE7=I Started Loving You Again
TTITLE8=Folsom Prison Blues
TTITLE9=The Things I Lost In You
TTITLE10=I'm Checking Out
TTITLE11=Sound Of An Angel's Wings
TTITLE12=Darling You Know I Wouldn't Lie
TTITLE13=Ballad Of Forty Dollars
TTITLE14=Papa Sing Me A Song
TTITLE15=Window Up Above
TTITLE16=Table In The Corner
TTITLE17=Bad Man
TTITLE18=Bad Girl
TTITLE19=When The Grass Grows Over Me
TTITLE20=Kaw-Liga
TTITLE21=Hungry Eyes (Mama's Hungry Eyes)
EXTD=
EXTT0=
EXTT1=
EXTT2=
EXTT3=
EXTT4=
EXTT5=
EXTT6=
EXTT7=
EXTT8=
EXTT9=
EXTT10=
EXTT11=
EXTT12=
EXTT13=
EXTT14=
EXTT15=
EXTT16=
EXTT17=
EXTT18=
EXTT19=
EXTT20=
EXTT21=
PLAYORDER=
